<?xml version="1.0" encoding="UTF-8"?> <svg xmlns="http://www.w3.org/2000/svg" width="275.025" height="275.042" viewBox="0 0 275.025 275.042"><path data-name="Path 3" d="M238.634 172.9q6.769 7.1 12.8 14.844a168.734 168.734 0 0 1 118.54-48.383v8.864a160 160 0 0 0-113.213 46.655 196.9 196.9 0 0 1 10.762 16.814 142.126 142.126 0 0 1 102.452-44v8.855a133.32 133.32 0 0 0-98.091 43.3 196.143 196.143 0 0 1 8.774 19.992 113.411 113.411 0 0 1 89.317-43.817v8.864a104.684 104.684 0 0 0-85.709 44.775 198.045 198.045 0 0 1 6.554 28.426 85.35 85.35 0 0 1 79.155-53.728v8.855a76.5 76.5 0 0 0-76.407 76.434H284.7c0-104.65-85.12-189.756-189.747-189.756v-8.873A197.333 197.333 0 0 1 204.1 143.88a197.214 197.214 0 0 1-32.731-109.274h8.864A188.413 188.413 0 0 0 233.182 165.9q7.118-6.769 14.773-12.785A169.02 169.02 0 0 1 199.7 34.606h8.873a160.235 160.235 0 0 0 46.53 113.2A200.34 200.34 0 0 1 271.976 137a142.146 142.146 0 0 1-43.942-102.4h8.873a133.363 133.363 0 0 0 43.163 98 197.378 197.378 0 0 1 20-8.747 113.4 113.4 0 0 1-43.7-89.246h8.864a104.693 104.693 0 0 0 44.739 85.7 196.165 196.165 0 0 1 28.391-6.563A85.369 85.369 0 0 1 284.7 34.606h8.873a76.491 76.491 0 0 0 76.407 76.416v8.873a188.4 188.4 0 0 0-131.344 53M94.953 139.359v8.864c89 0 161.417 72.413 161.417 161.426h8.864c0-93.892-76.389-170.29-170.281-170.29m0 28.337v8.855c73.381 0 133.08 59.7 133.08 133.1h8.873c0-78.287-63.684-141.953-141.953-141.953m0 28.328v8.864A104.87 104.87 0 0 1 199.7 309.649h8.873a113.75 113.75 0 0 0-113.62-113.626m0 28.337v8.855a76.508 76.508 0 0 1 76.416 76.434h8.864a85.373 85.373 0 0 0-85.28-85.289" transform="translate(-94.953 -34.606)" style="fill:#99bf09"></path></svg> 